<?xml version="1.0" standalone="no"?>
<!DOCTYPE svg PUBLIC "-//W3C//DTD SVG 20010904//EN"
 "http://www.w3.org/TR/2001/REC-SVG-20010904/DTD/svg10.dtd">
<svg version="1.0" xmlns="http://www.w3.org/2000/svg"
 width="1907.000000pt" height="738.000000pt" viewBox="0 0 1907.000000 738.000000"
 preserveAspectRatio="xMidYMid meet">
<metadata>
Mike Murphy
</metadata>
<g transform="translate(0.000000,738.000000) scale(0.100000,-0.100000)"
fill="#000000" stroke="none">
<path d="M9800 7009 c-965 -136 -1757 -248 -1760 -249 -3 0 -84 -71 -179 -158
l-175 -158 -196 106 -196 107 -519 -73 c-400 -57 -521 -77 -528 -89 -6 -12
-12 -13 -29 -4 -17 9 -247 -20 -1112 -142 l-1091 -153 -170 -218 c-93 -120
-175 -224 -181 -233 -9 -12 -58 11 -314 150 l-303 165 -600 -85 c-330 -46
-604 -88 -608 -92 -4 -5 -203 -600 -442 -1323 -240 -723 -634 -1913 -876
-2645 -242 -731 -437 -1333 -433 -1337 4 -3 212 -118 462 -254 l455 -247 520
72 c286 40 523 76 526 79 4 4 22 53 40 110 18 56 37 102 42 102 5 0 75 -36
157 -81 l149 -81 240 33 239 34 74 97 c40 53 77 97 81 98 4 0 63 -30 130 -67
86 -47 130 -66 152 -65 42 4 1018 141 1020 144 2 2 36 105 77 230 l74 227 210
-114 c139 -76 239 -123 299 -142 89 -27 93 -27 350 -27 256 0 265 1 590 47
182 26 377 59 433 72 168 40 306 102 420 187 29 22 58 38 65 36 7 -2 65 -31
130 -66 l117 -63 519 72 518 73 83 254 c65 196 87 252 98 247 8 -3 168 -89
356 -191 l341 -186 911 128 912 128 136 418 c76 230 138 418 139 418 11 3 533
77 534 76 1 -1 -9 -37 -23 -80 -13 -44 -23 -83 -22 -88 2 -5 210 -121 462
-258 l458 -249 507 70 c278 38 512 73 520 78 8 4 38 77 67 162 34 101 56 153
64 151 7 -2 108 -55 224 -118 116 -62 220 -114 231 -114 23 0 1019 140 1020
143 14 57 169 506 173 503 4 -2 162 -88 352 -192 257 -140 353 -187 375 -185
101 7 998 140 1004 149 3 6 92 272 196 592 l190 582 728 791 728 790 -28 17
c-15 10 -237 131 -493 270 -347 189 -473 253 -495 251 -16 -1 -271 -35 -565
-77 l-535 -75 -80 -87 c-44 -48 -98 -106 -120 -129 l-40 -43 -163 90 -164 89
-1064 -149 c-586 -83 -1066 -150 -1069 -150 -2 0 -27 -72 -57 -160 -29 -88
-56 -160 -61 -160 -4 0 -107 54 -227 120 l-220 120 -512 -71 c-282 -40 -518
-77 -524 -83 -7 -6 -35 -83 -64 -171 -29 -88 -56 -163 -59 -168 -4 -4 -93 40
-199 97 -187 103 -262 136 -303 136 -13 0 -19 5 -16 12 3 7 29 66 58 131 29
64 50 119 48 121 -2 1 -102 56 -221 120 l-218 117 212 242 c116 133 223 255
237 270 22 24 24 30 11 37 -45 28 -45 26 6 87 113 133 238 308 350 488 66 108
157 288 169 336 5 23 -17 36 -459 277 -319 173 -473 252 -493 251 -15 -1 -818
-113 -1783 -250z m1760 63 c0 -14 -126 -217 -219 -354 -155 -227 -288 -380
-343 -392 -12 -3 -268 -40 -568 -81 -300 -42 -557 -78 -572 -81 -25 -5 -31
-17 -88 -196 -34 -104 -59 -192 -57 -195 3 -2 52 51 109 120 l103 124 515 72
c283 40 521 74 528 77 8 2 10 -1 6 -9 -6 -9 -476 -548 -654 -750 -5 -5 -180
-33 -390 -63 -211 -29 -384 -55 -385 -56 -8 -11 -44 -132 -40 -136 3 -3 341
42 752 100 412 58 749 104 751 103 7 -6 -148 -289 -187 -340 -66 -87 -238
-280 -312 -351 l-64 -61 -1474 -207 c-1190 -167 -1477 -204 -1486 -194 -7 7
-169 192 -360 411 -191 219 -351 395 -355 390 -4 -4 -78 -223 -164 -485 -92
-281 -162 -478 -169 -478 -7 0 -199 -27 -427 -59 -228 -33 -417 -57 -419 -55
-4 3 786 2408 794 2422 4 5 857 123 861 119 2 -2 -66 -211 -151 -466 -84 -254
-150 -461 -146 -459 5 2 270 239 590 528 l582 525 127 17 c70 10 298 42 506
71 l379 54 -49 -46 c-602 -567 -1394 -1325 -1392 -1332 9 -27 732 -969 739
-962 4 4 179 532 390 1173 210 641 385 1168 388 1172 3 3 530 81 1171 171 641
91 1168 165 1173 166 4 1 7 -3 7 -7z m-5413 -769 c-20 -73 -761 -2400 -766
-2405 -8 -9 -811 -121 -818 -114 -6 6 755 2397 768 2410 7 8 382 65 813 125 4
0 6 -7 3 -16z m-987 -130 c0 -9 -801 -2417 -805 -2422 -6 -5 -838 -122 -851
-119 -6 2 60 221 162 533 96 292 172 534 171 539 -2 5 -200 -247 -441 -560
-242 -313 -444 -575 -451 -582 -10 -11 -344 -68 -350 -60 -1 2 -42 234 -91
515 -49 282 -92 513 -96 513 -3 0 -88 -249 -188 -552 -100 -304 -183 -554
-184 -555 -3 -3 -861 -121 -864 -118 -5 5 799 2425 806 2425 4 1 237 34 517
74 281 40 511 72 512 71 3 -1 183 -981 183 -995 0 -5 4 -10 9 -10 4 0 204 251
443 558 240 306 444 568 455 580 17 22 50 28 533 97 283 40 518 73 523 74 4 1
7 -2 7 -6z m12708 -740 c-13 -16 -289 -316 -613 -668 -323 -352 -608 -661
-632 -686 -44 -45 -46 -50 -227 -604 -143 -440 -186 -560 -202 -566 -21 -9
-825 -122 -829 -117 -1 2 80 257 181 568 101 311 184 572 184 580 0 8 -102
269 -226 579 -124 310 -222 567 -217 571 15 13 922 135 932 125 5 -6 45 -104
91 -220 45 -115 85 -213 88 -217 4 -4 121 116 261 267 140 151 254 275 255
276 2 2 943 137 960 138 18 1 17 -2 -6 -26z m-2833 -585 c-41 -123 -221 -668
-401 -1213 -179 -545 -327 -991 -329 -993 -2 -2 -838 -122 -851 -122 -1 0 59
184 134 409 75 226 134 412 132 414 -3 3 -169 -19 -369 -47 l-363 -51 -137
-415 -137 -414 -422 -60 c-232 -32 -425 -56 -429 -53 -6 6 782 2405 794 2417
2 3 197 32 432 65 l428 61 -189 -566 c-103 -311 -187 -571 -186 -578 2 -7 54
50 117 127 63 78 115 141 115 142 1 0 132 19 291 42 l290 42 149 445 c82 245
150 446 150 447 2 2 814 120 843 122 7 1 -19 -91 -62 -221z m-3100 -273 c62
-30 146 -121 187 -206 82 -164 106 -401 60 -572 -73 -267 -297 -532 -575 -677
-51 -27 -121 -58 -156 -70 -41 -13 -267 -50 -623 -100 -308 -43 -561 -80 -563
-82 -2 -2 -65 -191 -140 -420 -75 -230 -141 -418 -147 -418 -14 0 -1577 -219
-1609 -226 -23 -4 -77 37 -415 321 -213 179 -392 324 -397 322 -5 -1 -67 -180
-137 -396 -71 -216 -130 -394 -132 -396 -4 -4 -852 -123 -856 -120 -2 2 788
2416 794 2424 2 2 416 61 921 133 1000 141 1001 141 1099 93 103 -51 187 -174
219 -321 25 -115 31 -334 11 -434 -30 -151 -114 -298 -237 -416 -130 -124
-280 -205 -529 -287 l-161 -54 311 -296 c172 -164 315 -297 318 -297 4 0 173
508 376 1128 203 620 371 1128 372 1130 1 2 409 61 906 132 963 137 1024 143
1103 105z m-4905 -654 c0 -25 -468 -1416 -520 -1546 -126 -313 -243 -509 -400
-666 -147 -148 -290 -230 -483 -280 -96 -24 -644 -103 -837 -120 -397 -35
-630 42 -721 235 -49 104 -62 189 -56 366 5 165 3 156 106 530 22 80 112 368
199 640 l160 495 416 59 c229 32 420 56 423 53 3 -4 -67 -239 -155 -524 -236
-760 -264 -876 -243 -981 20 -101 81 -162 163 -162 74 0 275 38 318 60 115 58
229 177 308 322 28 52 103 270 258 743 l218 671 395 56 c424 60 451 63 451 49z
m-2740 -377 c0 -7 -801 -2418 -805 -2422 -5 -6 -839 -122 -851 -120 -7 2 55
207 157 518 92 283 171 526 174 540 6 25 6 25 -13 5 -11 -11 -210 -267 -442
-570 -233 -302 -428 -556 -435 -563 -9 -10 -346 -66 -351 -59 0 1 -41 233 -90
514 -49 282 -92 513 -96 513 -4 0 -89 -249 -189 -554 l-182 -553 -431 -61
c-237 -33 -432 -59 -434 -57 -3 3 797 2425 801 2425 17 4 1033 146 1034 146 3
-2 183 -983 183 -996 0 -5 4 -10 8 -10 5 0 212 261 461 580 250 319 454 580
455 580 3 2 1022 148 1034 149 6 0 12 -2 12 -5z"/>
<path d="M10927 3805 c-203 -29 -371 -55 -373 -58 -10 -9 -132 -387 -126 -387
4 0 59 54 122 121 l115 121 315 44 c173 24 318 44 322 44 3 0 15 26 25 58 21
62 13 113 -16 111 -9 -1 -182 -25 -384 -54z"/>
<path d="M8235 3434 c-203 -29 -373 -53 -376 -54 -3 0 -29 -75 -59 -167 -29
-93 -55 -174 -58 -182 -12 -32 21 0 96 93 l79 100 334 47 c372 52 362 48 374
133 8 50 4 78 -10 82 -5 1 -176 -22 -380 -52z"/>
</g>
</svg>
